<?xml version="1.0" standalone="no"?>
<!DOCTYPE svg PUBLIC "-//W3C//DTD SVG 20010904//EN"
 "http://www.w3.org/TR/2001/REC-SVG-20010904/DTD/svg10.dtd">
<svg version="1.0" xmlns="http://www.w3.org/2000/svg"
 width="500.000000pt" height="500.000000pt" viewBox="0 0 500.000000 500.000000"
 preserveAspectRatio="xMidYMid meet">

<g transform="translate(0.000000,500.000000) scale(0.100000,-0.100000)"
fill="#000000" stroke="none">
<path d="M760 2500 l0 -480 1740 0 1740 0 0 480 0 480 -1740 0 -1740 0 0 -480z
m3460 0 l0 -450 -1720 0 -1720 0 0 450 0 450 1720 0 1720 0 0 -450z"/>
<path d="M850 2500 l0 -390 820 0 820 0 0 390 0 390 -820 0 -820 0 0 -390z
m694 136 c31 -13 66 -49 66 -68 0 -5 -9 -8 -20 -8 -11 0 -20 4 -20 10 0 15
-56 40 -89 40 -17 0 -42 -10 -58 -24 -24 -21 -28 -32 -28 -75 0 -62 24 -90 82
-98 32 -4 44 -1 71 22 47 40 42 55 -18 55 -38 0 -50 4 -50 15 0 12 14 15 70
15 64 0 70 -2 70 -21 0 -43 -31 -88 -75 -109 -158 -76 -272 149 -122 240 38
23 75 25 121 6z m-303 -113 c25 -61 49 -119 52 -127 5 -11 0 -16 -14 -16 -13
0 -24 10 -30 30 -11 29 -13 30 -74 30 -60 0 -63 -1 -75 -30 -8 -18 -20 -30
-31 -30 -18 0 -18 3 -6 33 7 17 31 76 53 130 53 131 63 130 125 -20z m628 -7
c28 -69 51 -127 51 -130 0 -3 -8 -6 -18 -6 -10 0 -22 12 -29 30 -11 29 -14 30
-73 30 -59 0 -62 -1 -73 -30 -7 -18 -19 -30 -29 -30 -23 0 -22 7 1 61 10 24
33 79 51 122 46 110 56 106 119 -47z m207 54 c26 -38 50 -70 55 -70 4 0 27 31
51 70 26 42 50 69 61 70 15 0 17 -13 17 -130 0 -107 -3 -130 -15 -130 -11 0
-15 20 -17 97 l-3 97 -40 -62 c-22 -34 -47 -62 -56 -62 -9 0 -35 28 -58 63
l-41 62 0 -97 c0 -91 -1 -98 -20 -98 -19 0 -20 7 -20 130 0 123 1 130 20 130
13 0 35 -22 66 -70z"/>
<path d="M1152 2536 c-12 -32 -22 -60 -22 -62 0 -2 21 -4 46 -4 51 0 51 -1 15
84 l-17 39 -22 -57z"/>
<path d="M1790 2575 c0 -2 -9 -27 -20 -55 l-20 -50 49 0 49 0 -21 55 c-12 30
-25 55 -29 55 -5 0 -8 -2 -8 -5z"/>
<path d="M3670 2639 c-72 -16 -116 -104 -88 -177 28 -75 132 -107 205 -62 37
22 48 41 58 93 l7 37 -76 0 c-74 0 -76 -1 -76 -25 0 -22 4 -25 37 -25 35 0 36
0 18 -20 -39 -43 -108 -11 -108 50 0 46 30 73 73 65 19 -3 55 -8 79 -12 l45
-5 -16 23 c-34 52 -92 73 -158 58z"/>
<path d="M2760 2605 c0 -34 1 -35 40 -35 l40 0 0 -95 0 -95 35 0 35 0 0 95 0
95 40 0 c39 0 40 1 40 35 l0 35 -115 0 -115 0 0 -35z"/>
<path d="M3020 2634 c0 -3 20 -43 45 -88 33 -61 45 -94 45 -125 0 -40 1 -41
35 -41 35 0 35 0 35 46 0 37 10 65 46 130 l45 84 -40 0 c-38 0 -42 -3 -65 -47
l-24 -48 -23 48 c-21 44 -26 47 -61 47 -21 0 -38 -3 -38 -6z"/>
<path d="M3372 2613 c-5 -16 -28 -74 -50 -130 l-40 -103 38 0 c30 0 40 5 45
20 5 16 15 20 55 20 39 0 49 -3 53 -20 4 -15 14 -20 41 -20 20 0 36 3 36 8 0
4 -21 62 -47 130 l-48 122 -36 0 c-31 0 -39 -4 -47 -27z m63 -99 c19 -47 20
-44 -16 -44 -24 0 -30 3 -25 16 3 9 9 27 12 40 8 32 11 31 29 -12z"/>
<path d="M3890 2510 l0 -130 35 0 35 0 0 130 0 130 -35 0 -35 0 0 -130z"/>
</g>
</svg>
